<?xml version="1.0" ?><svg id="OBJECT" viewBox="0 0 512 512" xmlns="http://www.w3.org/2000/svg">
<defs><style>.cls-1{fill:#bddbff;}.cls-2{fill:#3d9ae2;}.cls-3{fill:#fff;}</style></defs><title/>
<rect class="cls-1" height="102.5" width="188.5" x="286" y="256"/><path class="cls-2" d="M474.5,366H286a7.5,7.5,0,0,1-7.5-7.5V256a7.5,7.5,0,0,1,7.5-7.5H474.5A7.5,7.5,0,0,1,482,256V358.5A7.5,7.5,0,0,1,474.5,366Zm-181-15H467V263.5H293.5Z"/><rect class="cls-3" height="30" width="60.16" x="350.17" y="292.25"/><path class="cls-2" d="M410.33,329.75H350.17a7.5,7.5,0,0,1-7.5-7.5v-30a7.5,7.5,0,0,1,7.5-7.5h60.16a7.5,7.5,0,0,1,7.5,7.5v30A7.5,7.5,0,0,1,410.33,329.75Zm-52.66-15h45.16v-15H357.67Z"/><rect class="cls-1" height="102.5" width="188.5" x="286" y="358.5"/><path class="cls-2" d="M474.5,468.5H286a7.5,7.5,0,0,1-7.5-7.5V358.5A7.5,7.5,0,0,1,286,351H474.5a7.5,7.5,0,0,1,7.5,7.5V461A7.5,7.5,0,0,1,474.5,468.5Zm-181-15H467V366H293.5Z"/><rect class="cls-3" height="30" width="60.16" x="350.17" y="394.75"/><path class="cls-2" d="M410.33,432.25H350.17a7.5,7.5,0,0,1-7.5-7.5v-30a7.5,7.5,0,0,1,7.5-7.5h60.16a7.5,7.5,0,0,1,7.5,7.5v30A7.5,7.5,0,0,1,410.33,432.25Zm-52.66-15h45.16v-15H357.67Z"/><rect class="cls-1" height="218.5" transform="translate(592.75 299.25) rotate(90)" width="30" x="131.75" y="336.75"/><path class="cls-2" d="M256,468.5H37.5A7.5,7.5,0,0,1,30,461V431a7.5,7.5,0,0,1,7.5-7.5H256a7.5,7.5,0,0,1,7.5,7.5v30A7.5,7.5,0,0,1,256,468.5Zm-211-15H248.5v-15H45Z"/><rect class="cls-1" height="248.5" width="30" x="7.5" y="256"/><path class="cls-2" d="M37.5,512H7.5A7.5,7.5,0,0,1,0,504.5V256a7.5,7.5,0,0,1,7.5-7.5h30A7.5,7.5,0,0,1,45,256V504.5A7.5,7.5,0,0,1,37.5,512ZM15,497H30V263.5H15Z"/><rect class="cls-1" height="248.5" width="30" x="474.5" y="256"/><path class="cls-2" d="M504.5,512h-30a7.5,7.5,0,0,1-7.5-7.5V256a7.5,7.5,0,0,1,7.5-7.5h30A7.5,7.5,0,0,1,512,256V504.5A7.5,7.5,0,0,1,504.5,512ZM482,497h15V263.5H482Z"/><rect class="cls-1" height="248.5" width="30" x="256" y="256"/><path class="cls-2" d="M286,512H256a7.5,7.5,0,0,1-7.5-7.5V256a7.5,7.5,0,0,1,7.5-7.5h30a7.5,7.5,0,0,1,7.5,7.5V504.5A7.5,7.5,0,0,1,286,512Zm-22.5-15h15V263.5h-15Z"/><rect class="cls-3" height="150" rx="20" ry="20" width="300" x="37.5" y="7.5"/><path class="cls-2" d="M317.5,165H57.5A27.54,27.54,0,0,1,30,137.5V27.5A27.54,27.54,0,0,1,57.5,0h260A27.53,27.53,0,0,1,345,27.5v110A27.53,27.53,0,0,1,317.5,165ZM57.5,15A12.52,12.52,0,0,0,45,27.5v110A12.52,12.52,0,0,0,57.5,150h260A12.51,12.51,0,0,0,330,137.5V27.5A12.51,12.51,0,0,0,317.5,15Z"/><polygon class="cls-1" points="242.5 196 132.5 196 152.5 157.5 222.5 157.5 242.5 196"/><path class="cls-2" d="M242.5,203.5h-110a7.5,7.5,0,0,1-6.65-11l20-38.5a7.51,7.51,0,0,1,6.65-4h70a7.51,7.51,0,0,1,6.66,4l20,38.5a7.51,7.51,0,0,1-6.66,11Zm-97.65-15h85.31L218,165H157.06Z"/><path class="cls-3" d="M419.34,146h0a30,30,0,0,1,30,30v20a0,0,0,0,1,0,0h-60a0,0,0,0,1,0,0V176a30,30,0,0,1,30-30Z"/><path class="cls-2" d="M449.34,203.5h-60a7.5,7.5,0,0,1-7.5-7.5V176a37.5,37.5,0,1,1,75,0v20A7.5,7.5,0,0,1,449.34,203.5Zm-52.5-15h45V176a22.5,22.5,0,1,0-45,0Z"/><rect class="cls-1" height="60" width="497" x="7.5" y="196"/><path class="cls-2" d="M504.5,263.5H7.5A7.5,7.5,0,0,1,0,256V196a7.5,7.5,0,0,1,7.5-7.5h497A7.5,7.5,0,0,1,512,196v60A7.5,7.5,0,0,1,504.5,263.5ZM15,248.5H497v-45H15Z"/></svg>