<?xml version="1.0" encoding="iso-8859-1"?>
<!-- Generator: Adobe Illustrator 19.0.0, SVG Export Plug-In . SVG Version: 6.00 Build 0)  -->
<svg version="1.1" id="Layer_1" xmlns="http://www.w3.org/2000/svg" xmlns:xlink="http://www.w3.org/1999/xlink" x="0px" y="0px"
	 viewBox="0 0 512 512" style="enable-background:new 0 0 512 512;" xml:space="preserve">
<g>
	<g>
		<path d="M456.348,422.957h-230.14c-6.288-26.504-27.183-47.399-53.687-53.687V66.783C172.522,29.959,142.563,0,105.739,0
			S38.957,29.959,38.957,66.783v16.696c0,9.22,7.475,16.696,16.696,16.696c9.22,0,16.696-7.475,16.696-16.696V66.783
			c0-18.412,14.979-33.391,33.391-33.391s33.391,14.979,33.391,33.391V369.27c-31.868,7.56-55.652,36.236-55.652,70.382
			c0,39.893,32.455,72.348,72.348,72.348c34.146,0,62.822-23.785,70.382-55.652h230.14c9.22,0,16.696-7.475,16.696-16.696
			S465.568,422.957,456.348,422.957z M155.826,478.609c-21.481,0-38.957-17.476-38.957-38.957s17.476-38.956,38.957-38.956
			c21.481,0,38.956,17.476,38.956,38.956S177.307,478.609,155.826,478.609z"/>
	</g>
</g>
<g>
	<g>
		<path d="M456.348,155.826h-66.783h-66.783H256c-9.22,0-16.696,7.475-16.696,16.696V372.87c0,9.22,7.475,16.696,16.696,16.696
			h200.348c9.22,0,16.696-7.475,16.696-16.696V172.522C473.043,163.301,465.568,155.826,456.348,155.826z M339.478,189.217h33.391
			v33.391h-33.391V189.217z M439.652,356.174H272.696V189.217h33.391v50.087c0,9.22,7.475,16.696,16.696,16.696h66.783
			c9.22,0,16.696-7.475,16.696-16.696v-50.087h33.391V356.174z"/>
	</g>
</g>
<g>
</g>
<g>
</g>
<g>
</g>
<g>
</g>
<g>
</g>
<g>
</g>
<g>
</g>
<g>
</g>
<g>
</g>
<g>
</g>
<g>
</g>
<g>
</g>
<g>
</g>
<g>
</g>
<g>
</g>
</svg>
